<svg id="Layer_1" data-name="Layer 1" xmlns="http://www.w3.org/2000/svg" viewBox="0 0 628.25 76.66"><defs><style>.cls-1{fill:#4e4ba8;}.cls-2{fill:#daac06;}.cls-3{fill:#00938a;}.cls-4{fill:#6eb122;}.cls-5{fill:#b80a41;}.cls-6{fill:#2e3192;}</style></defs><title>gbc_logo</title><g id="g10"><g id="g12"><path id="path14" class="cls-1" d="M461.31,53.17a14.63,14.63,0,0,1-13.81,6.65c-11.14-1.15-12.45-10.93-12.45-10.93s-1.52-7.2,5.34-13.47a20,20,0,0,1,14.19-5s4.87.47,7.37,8.52c3.21,10.25-.64,14.19-.64,14.19Zm16.81-20.29A27.06,27.06,0,0,0,473,24.62,30.34,30.34,0,0,0,456.61,15,26,26,0,0,0,440,17.12a35.67,35.67,0,0,0-11.64,8.18c-8,7.66-10.25,18.85-10.25,18.85S415,53.89,419.84,61.6L425.1,68a30.18,30.18,0,0,0,15.33,6.82,32.35,32.35,0,0,0,13.85-.51,34.16,34.16,0,0,0,11.27-4.53s10.8-6,13.76-18.17l-1.19-18.68" transform="translate(-2.04 -2)"/><path id="path16" class="cls-2" d="M553.43,55.37c-12,7.2-19.52-.68-19.52-.68s-3.35-2.2-4.07-8.89C529.33,38.05,537,34,537,34a16.85,16.85,0,0,1,9.15-2.12c5.08.39,6.69.05,10.8,3.1,3.89,3.51,3.64,6.1,3.64,6.1a15,15,0,0,1-7.2,14.27Zm20.29-24.74A31.07,31.07,0,0,0,553.26,16.7s-4.15-1.4-13-.21c-16.69,3.17-22.49,16-22.49,16s-6,9.4-3.6,20.79l7.28,14.4c5.38,5,7.58,5,7.92,5.34,7.12,3.22,15.37,1.36,15.37,1.36A42.8,42.8,0,0,0,564.65,66a35.57,35.57,0,0,0,10.93-13.81l-1.86-21.52" transform="translate(-2.04 -2)"/><path id="path18" class="cls-3" d="M591.68,33.35l-.81-11.06s7.75-.17,11,.38c6.36,1,6,2.76,6,2.76s-.21,2.24-5,4.44a45.94,45.94,0,0,1-11.14,3.48Zm-16.1,18.8s.26,6.78-.8,8.43a13.75,13.75,0,0,0-1.23,6.1s-1,9.15,9.61,10.67c7.29,0,8.18-6.1,8.3-8.68.43-2,.26-11.48.26-11.48l9.44,7.71S608,70.66,612.05,74a58.89,58.89,0,0,0,5.25,3.89s.89,1.06,4.11.68c2.59,0,5-2.29,5-2.29a10.72,10.72,0,0,0,3.76-6.05,6.57,6.57,0,0,0-2.62-6.82s-13.13-10.59-22-17.88a73.22,73.22,0,0,0,8.85-5.5s8.3-5.51,10.08-13.94c2.46-9.27-4.53-12.92-4.53-12.92a57.06,57.06,0,0,0-8-4.78,36.13,36.13,0,0,0-17.92-3.6s-12.28-.85-20.29,9c-3.68,4.79-1.39,11.05-1.39,11.05a40,40,0,0,1,1.48,5.76c2.06,9.57,1.86,21.52,1.86,21.52" transform="translate(-2.04 -2)"/><path id="path20" class="cls-4" d="M514.13,53.29c-3.57-.78-9.28.68-9.28.68s-8,2.92-9.19,2.88c-.47-.67-1.48-13.68-1.19-18.89a156.17,156.17,0,0,0-.59-16.69s-.38-8.85-5.13-14.1C483.16,1.54,479.27,4,477,5.31A9.66,9.66,0,0,0,474.14,16l2.8,7.92a24.25,24.25,0,0,1,1.18,8.94l1.19,18.68c0,2.5,2,19.31,2,19.31s.21,5.47,5.47,6.44,10.67-1.78,12.92-2.84a48.35,48.35,0,0,1,5.21-2,42.06,42.06,0,0,1,4.91-.76c5.76-.55,7.83-1.57,7.83-1.57a6.08,6.08,0,0,0,3.73-2.46c1.5-2.12,3.31-12.07-7.28-14.4" transform="translate(-2.04 -2)"/><path id="path22" class="cls-5" d="M419.84,61.59a20.53,20.53,0,0,0-8.13-.38S399.43,62.4,393,61c-9.92-1.73-9.58-12.41-9.58-12.41s-.34-7.07,5.64-16.64c7.37-11.82,15.5-13.94,15.5-13.94a5.23,5.23,0,0,1,3.94.26c1.18,6.86,7.83,6.82,7.83,6.82s9.58.63,9.11-11c-1.1-9.53-10.29-10.85-14.15-11.73a24.6,24.6,0,0,0-19.06,4.1s-7.75,4.2-17,18.81c-6.32,9.06-7.08,16.18-7.08,16.18s-.76,1.69-.46,9.23a22.83,22.83,0,0,0,2,10.17,25.24,25.24,0,0,0,13.93,14.27c6.44,2.67,15.85,2.63,15.85,2.63s9.1-.13,16.09-.51a7,7,0,0,0,5.63-1.7s4.28-2.79,3.86-7.66c0,0-.83-5-5.26-6.36" transform="translate(-2.04 -2)"/><path id="path24" class="cls-6" d="M77.51,40.93l-2.25-11.6-5.18,11.6Zm81.38,29.46H146.61l-1.64-37-16,37h-8.18L114,37,103.37,70.39H82.5L79.36,52.53H65.17L57.12,70.39H44.29L70.63,10.64H85.77l8,48.3,15.68-48.3h12.14l6,32.74,13.92-32.74H156.3l2.59,59.75" transform="translate(-2.04 -2)"/><path id="path26" class="cls-6" d="M194.09,70.39l2-12.82H174.71l1.7-10.64H195l2.05-12.82H178.26l1.64-10.64h21.41l2.05-12.83h-34l-9.56,59.75h34.25" transform="translate(-2.04 -2)"/><path id="path28" class="cls-6" d="M353.57,10.64" transform="translate(-2.04 -2)"/><path id="path28-2" data-name="path28" class="cls-6" d="M353.57,10.64H339.24L327.1,30.15l-7.64-19.51h-14l14.46,31.51-4.46,28.24h12.28l3.77-25" transform="translate(-2.04 -2)"/><path id="path30" class="cls-6" d="M280.66,59c6.5,2.9,14.45-2.8,17.76-12.73s.74-20.36-5.76-23.26-14.44,2.79-17.76,12.73-.73,20.35,5.76,23.26ZM262.08,35.38C265.89,18.86,280,8,293.62,11.16s21.54,19.08,17.73,35.6S293.42,74.12,279.82,71s-21.55-19.08-17.74-35.6" transform="translate(-2.04 -2)"/><path id="path32" class="cls-6" d="M18.1,16C6.4,23.2.78,34.24,2.28,49.25,4,66.66,26.56,77.62,45.66,66.58c1.67-1,1-.82,1.64-1.37l3.82-24.28H28.33L26.59,52.11h9.52l-1.1,6c-5.45,2.18-14.73,1.36-18.68-5.73-2.51-4.5-4.83-14.52,5.73-23.74,8.59-7.5,23.46-8.87,32.06-4.91,0,0,1.09-6.28,1.91-12.15C39.52,5.87,26.69,10.64,18.1,16" transform="translate(-2.04 -2)"/><path id="path34" class="cls-6" d="M222.05,11l-9.48,59.3h27.62c11.37,0,28-16.77,12.86-30.47,15.57-16.11.14-28.7-8.12-28.83-6.63-.11-23,0-23,0Zm6.77,35.87h10.29c9.75,0,9.48,11.92-1.36,11.92H226.92l1.9-11.92Zm3.79-23.28h8c8.66,0,6.91,11.1-1.35,11.1h-8.53l1.89-11.1" transform="translate(-2.04 -2)"/></g></g></svg>