<svg id="Layer_1" data-name="Layer 1" xmlns="http://www.w3.org/2000/svg" viewBox="0 0 631.9 113.24"><defs><style>.cls-1{fill:#0222a9;}.cls-2{fill:#011da9;}.cls-3{fill:#069330;}.cls-4{fill:#fe2015;}.cls-5{fill:#ffc001;}.cls-6{fill:#0124a6;}.cls-7{fill:#ff2d1e;}</style></defs><title>n64_logo</title><path class="cls-1" d="M72,37.41l3.31-3.76V8.18l-15.82,6.1h0L46.35,37.64l13.11-5Z" transform="translate(-2.73 -2)"/><path class="cls-2" d="M100.07,72.9V30l16.05-6.18V91.36l-16.05,6.78h0L76.49,67.32v40.77l-17,7.15V45.63l17-6.48Z" transform="translate(-2.73 -2)"/><path class="cls-1" d="M33.92,91.44,18.85,62.2V98.14h0Z" transform="translate(-2.73 -2)"/><path class="cls-3" d="M34.9,23.77h0l7.53,15.38,3.92-1.51L59.46,14.28,43.64,8.1Z" transform="translate(-2.73 -2)"/><path class="cls-3" d="M72,37.41h0L84,23.77l16,6.18v43L76.49,39.15Z" transform="translate(-2.73 -2)"/><path class="cls-3" d="M59.46,115.24V45.63l-17-6.48V74.48L18.78,30h0l-16-6.18V91.36l16.05,6.78V62.2l23.65,45.89Z" transform="translate(-2.73 -2)"/><path class="cls-4" d="M18.85,30l16-6.18,7.53,15.38h0V74.48Z" transform="translate(-2.73 -2)"/><path class="cls-4" d="M76.49,84.13l4.82,6.78,18.76,7.23h0L76.49,67.32Z" transform="translate(-2.73 -2)"/><path class="cls-5" d="M42.51,39.15l17-6.48,17,6.48h0l-17,6.48Z" transform="translate(-2.73 -2)"/><path class="cls-5" d="M100.07,17.6l16.05,6.17L100.07,30,84,23.77h0Z" transform="translate(-2.73 -2)"/><path class="cls-5" d="M18.85,17.6l16,6.17L18.85,30l-16-6.18h0Z" transform="translate(-2.73 -2)"/><path class="cls-5" d="M59.46,2,43.64,8.1l15.82,6.18,15.82-6.1h0Z" transform="translate(-2.73 -2)"/><path class="cls-6" d="M447,31.45h24.17c20.68,0,27.16,11.71,27.16,27.66,0,16.44-10.22,26.66-25.92,26.66H447V31.45Zm19.93,42.11h2c3.23,0,5.48-1,6.72-3.24s1.5-6.48,1.5-11.71-.25-9.47-1.5-11.71-3.49-3.24-6.72-3.24h-2V73.31h0Z" transform="translate(-2.73 -2)"/><path class="cls-6" d="M530.22,30c17.69,0,26.66,11.71,26.66,28.66s-8.72,28.66-26.66,28.66c-17.7,0-26.67-11.72-26.67-28.66S512.27,30,530.22,30Zm0,43.36c3.24,0,5.48-1.49,5.48-15,0-13-2.24-15-5.48-15s-5.49,1.74-5.49,15,2.25,15,5.49,15Z" transform="translate(-2.73 -2)"/><path class="cls-6" d="M566.35,74.31a6.48,6.48,0,1,0,6.48,6.48,6.6,6.6,0,0,0-6.48-6.48Zm0,11.71a5.24,5.24,0,1,1,5.23-5.23A5.26,5.26,0,0,1,566.35,86Z" transform="translate(-2.73 -2)"/><path class="cls-6" d="M565.35,84.27h-1.49v-7h3c1.24,0,2.49.5,2.49,1.74a1.65,1.65,0,0,1-1.5,1.75h0c1.25.25,1.25.74,1.25,1.74a4.54,4.54,0,0,0,.5,1.74h-1.75a5.43,5.43,0,0,1-.25-2c0-.5-.24-1-.74-1h-1.5V84h0Zm0-4h1.25c.75,0,1-.25,1-1a.91.91,0,0,0-1-1h-1.25v2Z" transform="translate(-2.73 -2)"/><path class="cls-6" d="M170.63,31.45V62.6h-.24l-11-31.15H135V85.77h16.45V54.37h.25l11,31.4h24.42V31.45Z" transform="translate(-2.73 -2)"/><path class="cls-6" d="M262.83,31.45V62.6h-.24l-11-31.15H227.2V85.77h16.45V54.37h.25l11,31.4h24.42V31.45Z" transform="translate(-2.73 -2)"/><path class="cls-6" d="M421.57,31.45V62.6h-.25l-11-31.15H385.93V85.77h16.45V54.37h.25l11,31.4H438V31.45Z" transform="translate(-2.73 -2)"/><path class="cls-6" d="M217.48,31.45V85.77H197.05V31.45h20.43Z" transform="translate(-2.73 -2)"/><path class="cls-6" d="M298.22,85.77V46.15h-13V31.45h46.35v14.7h-13V85.77Z" transform="translate(-2.73 -2)"/><path class="cls-6" d="M357.78,45.9v5.73h18.69v14H357.78v6h20.93v14.2H337.84V31.45h40.37V45.9Z" transform="translate(-2.73 -2)"/><path class="cls-7" d="M593.51,24.22h-3.74c-8.72.5-12,4-13.2,8.22h.24c2.25-2,4.74-2.74,8.23-2.74,6.73,0,13,5,13,14.21a15.59,15.59,0,0,1-16,15.94c-12.21,0-17.45-9.22-17.45-19.18,0-8,2.75-15,7.48-19.19,4.49-4.24,10.22-6.23,17.19-6.48h4v9.22h.25ZM582.05,51.13c2.74,0,4.48-2.74,4.48-6.48,0-3-1.49-6.48-5.23-6.48a5.22,5.22,0,0,0-4.73,3.24,6.27,6.27,0,0,0-.25,2.5c.25,3.48,2,7.22,5.73,7.22Z" transform="translate(-2.73 -2)"/><path class="cls-7" d="M619.43,59.11V49.39H601.24V41.66l14.45-25.91h14.45V40.67h4.49v9h-4.49v9.72h-11Zm0-18.69V32.94c0-2.74.25-5.73.25-8.72h-.25c-1.25,3-2.5,5.73-4,8.72L612,40.17v.25Z" transform="translate(-2.73 -2)"/></svg>